HIERARCHY
ROOT Hips
{
	OFFSET -3.958830 18.904000 13.208200
	CHANNELS 6 Xposition Yposition Zposition Zrotation Yrotation Xrotation 
	JOINT LHipJoint
	{
		OFFSET 0.000000 0.000000 0.000000
		CHANNELS 3 Zrotation Yrotation Xrotation
		JOINT LeftUpLeg
		{
			OFFSET 1.800000 -1.400000 0.085000
			CHANNELS 3 Zrotation Yrotation Xrotation
			JOINT LeftLeg
			{
				OFFSET 2.215000 -6.000000 0.000000
				CHANNELS 3 Zrotation Yrotation Xrotation
				JOINT LeftFoot
				{
					OFFSET 2.500000 -6.900000 0.000000
					CHANNELS 3 Zrotation Yrotation Xrotation
					JOINT LeftToeBase
					{
						OFFSET 0.200000 -0.500000 1.950000
						CHANNELS 3 Zrotation Yrotation Xrotation
						End Site
						{
							OFFSET 0.000000 0.000000 0.000000
						}
					}
				}
			}
		}
	}
	JOINT RHipJoint
	{
		OFFSET 0.000000 0.000000 0.000000
		CHANNELS 3 Zrotation Yrotation Xrotation
		JOINT RightUpLeg
		{
			OFFSET -1.800000 -1.400000 0.085000
			CHANNELS 3 Zrotation Yrotation Xrotation
			JOINT RightLeg
			{
				OFFSET -2.215000 -6.000000 0.000000
				CHANNELS 3 Zrotation Yrotation Xrotation
				JOINT RightFoot
				{
					OFFSET -2.500000 -6.900000 0.000000
					CHANNELS 3 Zrotation Yrotation Xrotation
					JOINT RightToeBase
					{
						OFFSET -0.200000 -0.500000 1.950000
						CHANNELS 3 Zrotation Yrotation Xrotation
						End Site
						{
							OFFSET 0.000000 0.000000 0.000000
						}
					}
				}
			}
		}
	}
	JOINT LowerBack
	{
		OFFSET 0.000000 0.000000 0.000000
		CHANNELS 3 Zrotation Yrotation Xrotation
		JOINT Spine
		{
			OFFSET -0.087000 1.940000 -0.288900
			CHANNELS 3 Zrotation Yrotation Xrotation
			JOINT Spine1
			{
				OFFSET 0.000000 1.950000 0.060000
				CHANNELS 3 Zrotation Yrotation Xrotation
				JOINT Neck
				{
					OFFSET 0.000000 0.000000 0.000000
					CHANNELS 3 Zrotation Yrotation Xrotation
					JOINT Neck1
					{
						OFFSET 0.000000 1.600000 0.340000
						CHANNELS 3 Zrotation Yrotation Xrotation
						JOINT Head
						{
							OFFSET 0.000000 1.667000 -0.240000
							CHANNELS 3 Zrotation Yrotation Xrotation
							End Site
							{
								OFFSET 0.000000 0.000000 0.000000
							}
						}
					}
				}
				JOINT LeftShoulder
				{
					OFFSET 0.000000 0.000000 0.000000
					CHANNELS 3 Zrotation Yrotation Xrotation
					JOINT LeftArm
					{
						OFFSET 2.700000 1.550000 -0.730000
						CHANNELS 3 Zrotation Yrotation Xrotation
						JOINT LeftForeArm
						{
							OFFSET 5.450000 0.000000 0.000000
							CHANNELS 3 Zrotation Yrotation Xrotation
							JOINT LeftHand
							{
								OFFSET 3.450000 0.000000 0.000000
								CHANNELS 3 Zrotation Yrotation Xrotation
								JOINT LeftHandIndex1
								{
									OFFSET 0.750000 0.000000 0.000000
									CHANNELS 3 Zrotation Yrotation Xrotation
									End Site
									{
										OFFSET 0.000000 0.000000 0.000000
									}
								}
							}
						}
					}
				}
				JOINT RightShoulder
				{
					OFFSET 0.000000 0.000000 0.000000
					CHANNELS 3 Zrotation Yrotation Xrotation
					JOINT RightArm
					{
						OFFSET -2.700000 1.550000 -0.730000
						CHANNELS 3 Zrotation Yrotation Xrotation
						JOINT RightForeArm
						{
							OFFSET -5.450000 0.000000 0.000000
							CHANNELS 3 Zrotation Yrotation Xrotation
							JOINT RightHand
							{
								OFFSET -3.450000 0.000000 0.000000
								CHANNELS 3 Zrotation Yrotation Xrotation
								JOINT RightHandIndex1
								{
									OFFSET -0.750000 0.000000 0.000000
									CHANNELS 3 Zrotation Yrotation Xrotation
									End Site
									{
										OFFSET 0.000000 0.000000 0.000000
									}
								}
							}
						}
					}
				}
			}
		}
	}
}
MOTION
Frames: 10
Frame Time: 0.016667
-1.597460 16.286020 -2.237290 0.285762 -1.174140 -2.509208 -14.708935 11.254231 4.223874 14.127689 -2.481532 -28.682396 -6.171435 2.136186 -6.019201 -0.536508 3.209283 3.366408 0.124230 0.134630 0.140420 18.645365 -12.472340 1.413836 -22.453238 0.328529 2.742177 -2.687103 -6.822741 27.415787 -0.390139 -6.285258 2.142163 0.309070 0.313480 0.150300 -4.786449 2.212574 -7.621380 12.436213 3.337709 6.470414 -0.022222 2.156205 13.986338 4.506914 -3.023404 -9.874335 -2.098764 9.533941 38.934252 -7.932610 12.607350 -1.311080 5.749481 -27.852923 13.092907 -0.333211 -14.671476 4.881231 -9.151202 1.880799 -0.798192 -4.451259 2.664629 -0.062980 0.417860 -0.168600 0.026870 -12.617567 31.459220 -8.809784 18.881205 53.824250 20.521739 -18.451266 36.234756 -4.455501 2.112270 -1.137532 -0.213930 0.162660 0.083350 -0.127160 
-1.613100 16.241530 -2.274590 0.016229 -2.091996 -2.420587 -14.715996 11.245227 4.250993 14.819610 -2.256375 -28.989057 -5.629964 2.166712 -6.049807 -0.519808 3.229849 3.353708 0.109810 0.119230 0.130900 18.636848 -12.451218 1.444832 -22.344388 0.305575 3.146831 -2.924183 -6.586469 26.253021 -0.381893 -6.191008 2.187816 0.292550 0.318460 0.150010 -4.755275 2.198432 -7.678818 12.398884 3.578849 6.852484 0.735879 2.269651 13.907967 4.491535 -2.955166 -9.989733 -1.813322 9.850921 39.237454 -7.694230 13.109840 -1.019640 4.524913 -27.977368 13.522351 -0.682943 -13.380284 4.640008 -6.340980 -1.204847 -0.250436 -4.384500 2.720286 -0.060490 0.417420 -0.166710 0.026480 -11.330878 32.045773 -8.794895 19.612609 54.414548 21.479398 -18.842173 34.482485 -4.456260 2.154493 -1.076633 -0.213470 0.161440 0.087810 -0.124630 
-1.658880 16.158760 -2.345420 -0.068791 -4.023411 -1.894692 -14.745603 11.244388 4.238639 15.960169 -1.744322 -30.060888 -4.686743 2.416028 -4.869589 -0.528091 3.239149 3.333873 0.090330 0.091150 0.121960 18.608902 -12.396268 1.546813 -22.379544 0.387261 3.680707 -2.664385 -6.338178 23.610113 -0.359235 -6.027688 2.258552 0.273410 0.323880 0.151190 -4.658483 2.179066 -7.765689 11.797822 4.412659 7.380145 2.675861 2.916346 13.870014 4.058329 -2.794597 -10.334352 -1.492704 9.660267 38.893845 -7.701840 13.266370 -0.934340 3.114289 -28.180030 13.565045 -0.609599 -12.311115 4.349804 -5.554234 -3.991234 0.100591 -4.324570 2.761833 -0.051580 0.418300 -0.169000 0.021380 -9.018447 33.229689 -7.913257 20.486109 54.850701 21.355324 -21.627808 32.451232 -5.563773 2.207950 -1.021117 -0.220310 0.160690 0.098490 -0.128310 
-1.684990 16.100360 -2.419520 0.147571 -4.784606 -1.770730 -14.757876 11.291581 4.137728 15.979498 -1.418983 -31.822642 -4.293453 2.876576 -1.952725 -0.554093 3.144427 3.347953 0.091550 0.087880 0.106490 18.605146 -12.297871 1.696345 -22.893809 0.446121 4.886046 -1.267077 -6.597582 21.110660 -0.375786 -6.026991 2.270935 0.265870 0.321250 0.142700 -4.637585 2.040389 -7.763512 11.920882 4.994165 7.942903 3.830971 3.371470 14.176936 3.230285 -2.796198 -10.417273 -1.890224 9.037726 38.868687 -6.936660 12.111960 -1.145320 1.826281 -27.311068 12.886895 -0.034449 -11.303125 3.941221 -6.181668 -8.157079 0.638214 -4.217203 2.817770 -0.032220 0.393840 -0.163300 0.028050 -6.226536 33.330069 -6.165876 20.405796 53.922817 18.713204 -24.512918 36.636345 -7.131532 2.129431 -1.037813 -0.219340 0.171840 0.102650 -0.119630 
-1.708870 16.099660 -2.477820 0.558764 -5.863667 -1.594886 -14.813321 11.389463 4.115200 16.330808 -1.197512 -33.176928 -4.849560 3.489546 1.066433 -0.554463 3.220521 3.303759 0.077740 0.060830 0.077840 18.564276 -12.135282 1.767795 -23.042500 0.479069 5.196290 -0.935927 -6.420693 18.967015 -0.358809 -5.905023 2.329095 0.248120 0.326070 0.124250 -4.497533 1.682603 -7.732734 11.249892 5.356062 8.547941 4.967976 3.622995 14.134509 2.227786 -3.090394 -10.178933 -3.083937 8.268146 39.413035 -6.162810 10.402780 -0.911050 0.126317 -25.546634 11.685095 0.317061 -10.545483 3.477234 -7.339786 -12.439996 1.284678 -4.122225 2.886029 -0.013880 0.369110 -0.172370 0.031660 -2.715015 32.729748 -4.235781 21.041049 52.586814 16.418694 -27.414075 46.117222 -9.342637 1.949916 -0.977582 -0.227430 0.187960 0.116930 -0.110870 
-1.700620 16.142100 -2.519340 1.020486 -6.349382 -1.490396 -14.845066 11.517830 4.136865 16.087112 -1.322691 -34.357105 -5.680372 4.077464 4.030853 -0.551708 3.293713 3.254468 0.112080 0.097960 0.078030 18.538284 -12.054122 1.732923 -22.963039 0.552499 4.523373 -1.767976 -6.003265 18.530516 -0.339812 -5.728056 2.383852 0.265860 0.304190 0.115330 -4.417198 1.352505 -7.648849 11.159771 5.322927 9.296058 4.952804 3.717892 13.853950 1.499861 -3.865456 -9.532589 -5.257868 7.815332 39.478136 -5.649270 8.546700 -1.669420 -0.096439 -23.196122 10.349018 -0.115407 -9.956799 3.107229 -9.579510 -19.237612 2.528438 -3.997125 3.009297 -0.002790 0.332930 -0.160230 0.043780 -1.333453 31.069563 -3.478338 19.547538 49.781568 12.684909 -25.383257 58.079225 -10.204366 1.818762 -1.034978 -0.210780 0.195100 0.105480 -0.097780 
-1.679750 16.219890 -2.555030 1.644063 -6.632092 -1.762861 -14.891484 11.702898 4.194116 15.619058 -1.563146 -35.357307 -7.109752 4.971870 7.853879 -0.526005 3.499856 3.154665 0.158800 0.154700 0.091940 18.486104 -12.008956 1.643472 -22.927476 0.622780 3.628231 -2.738837 -5.681311 19.414634 -0.333324 -5.581984 2.423397 0.286580 0.269060 0.107370 -4.269849 0.958311 -7.579876 10.407238 5.312132 10.444661 5.066485 3.775109 13.933727 0.715799 -4.244355 -9.141987 -6.704064 7.531576 39.944836 -5.106990 7.186840 -2.692440 0.598844 -20.167992 8.821058 -0.802144 -8.894265 2.652145 -13.681552 -28.222001 4.723533 -3.867270 3.165892 0.014880 0.289790 -0.130200 0.061100 -0.749402 28.196195 -2.220603 18.840162 45.821640 8.535031 -28.480757 71.169706 -15.700921 1.677003 -0.982286 -0.186250 0.199950 0.078640 -0.085360 
-1.635290 16.338990 -2.566960 2.149597 -6.483508 -2.184396 -14.936955 11.932167 4.278050 14.638952 -2.111890 -36.216491 -8.500186 6.116799 12.531837 -0.464629 3.851529 3.013303 0.182830 0.192930 0.069500 18.429278 -12.008009 1.496123 -22.730732 0.624256 2.330852 -4.136967 -5.312090 21.603974 -0.311731 -5.470220 2.455773 0.294500 0.255680 0.091640 -4.111796 0.526933 -7.503770 9.403580 5.078437 11.693551 5.479147 3.555437 13.984283 -0.364801 -4.773175 -8.943058 -8.496419 7.000662 40.279815 -3.950260 5.059740 -3.121690 1.761753 -16.799886 7.627083 -2.643173 -7.255493 2.295232 -20.182006 -39.873427 8.695066 -3.755973 3.380231 0.010820 0.251630 -0.120610 0.082960 -0.067177 25.078750 -1.061293 20.016996 41.163931 4.682787 -46.896828 84.066258 -35.439244 1.363817 -0.143038 -0.159980 0.206270 0.062510 -0.054180 
-1.562450 16.495030 -2.564800 2.582620 -6.318124 -2.460150 -15.000168 12.227018 4.488015 13.492935 -2.977739 -36.824340 -10.466760 7.509083 17.207363 -0.362832 4.444114 2.793254 0.194230 0.208890 0.058440 18.344197 -11.964810 1.268812 -22.470961 0.690524 -0.666373 -5.573990 -4.988689 25.898143 -0.278834 -5.382459 2.460871 0.287840 0.236910 0.070770 -3.886484 -0.146270 -7.501620 8.701811 4.494474 13.192170 5.327777 2.977688 15.073910 -1.318439 -5.209232 -10.269383 -10.655450 6.955239 40.155074 -2.925900 3.537380 -3.630210 2.564900 -12.875300 6.014317 -4.386225 -6.356430 2.099438 -28.921694 -49.571246 14.440206 -3.686579 3.510036 0.025870 0.208430 -0.104490 0.095200 0.646750 20.650604 3.342194 17.463831 40.323988 14.647571 -108.361597 74.585556 -98.517267 2.363174 1.499993 -0.146220 0.216620 0.049610 -0.036230 
-1.469630 16.634970 -2.540670 2.725779 -6.211613 -2.701072 -15.014464 12.328186 4.677929 12.455526 -3.927468 -36.955849 -12.428448 9.133800 22.002796 -0.251468 5.252808 2.502463 0.203940 0.219140 0.052860 18.333755 -12.022172 1.075936 -21.545580 0.875355 -5.050562 -8.235736 -4.262682 32.188337 -0.300253 -5.552833 2.367108 0.290980 0.233460 0.061190 -3.832944 -0.310688 -7.524161 8.237362 4.079043 14.579925 5.187680 2.819098 13.819232 -1.705975 -5.725265 -9.702205 -11.812556 7.341108 40.292441 -2.206260 2.947790 -4.402270 4.135471 -10.617388 6.433539 -6.998868 -4.984641 2.561173 -42.948969 -58.269298 24.477949 -3.665621 3.666683 0.045020 0.187120 -0.096420 0.102030 -0.249600 18.796602 1.717683 21.466112 33.320686 4.888372 169.510563 76.504795 163.859720 1.753984 -1.574190 -0.147470 0.232440 0.048920 -0.031230 
